<svg id="Layer_1" fill="#FFFFFF" data-name="Layer 1" xmlns="http://www.w3.org/2000/svg" viewBox="0 0 1637.55 522.46"><title>az logo</title><path d="M143.81,525.39c-3.41-4.09-6.59-8.39-10.27-12.21-7-7.25-16.39-12.14-19.49-23.08-1-3.44-5.4-7.51-8.92-8.31-8.06-1.83-11.36-9-17.32-13-3.66-2.48-6.63-6.07-9.55-9.49-1.38-1.62-2.76-4-2.66-6,.25-5.31-2.29-9.38-5.48-12.77a153.9,153.9,0,0,0-15.77-14.3c-2.45-2-3.22-3.77-2.76-6.7a6.31,6.31,0,0,0-.75-4.34c-6.45-8.94-11.14-19-19.19-27-3.59-3.59-3.95-10.65-5.24-16.26C23.77,360.38,17.87,351.42,7,346.46c-4.7-2.16-6.27-4.64-3.74-9.38.47-.89.06-2.26.06-2.62-4.34-2.18-8.32-3.91-12-6.09-4.54-2.67-4.46-7-3.85-11.65,1-7.67-.62-15-3.79-22-.46-1-1.36-1.85-1.83-2.87-3.29-7-6.55-13.68-12.65-19.32-4-3.71-5.76-11-6.42-16.9-.62-5.65-4-7.37-7.73-9.7-2.21-1.4-4.38-2.85-6.53-4.33-3.29-2.27-4.52-5.33-4.23-9.38.13-1.78-1.09-3.65-1.66-5.49-1.09-3.52-2.66-7-3.09-10.6A17.17,17.17,0,0,0-66.8,204.4c-5.23-4.37-8.73-9.44-7-16.8.23-1-.49-2.51-1.21-3.45-2.23-2.88-4.66-5.6-7.36-8.8,4.29-4.64,8-8.94,12-12.9C-62,154.18-53.54,146-44.86,138a13,13,0,0,1,7-2.85c4.12-.46,8.32-.14,12.49-.13,6.15,0,6.61.61,5,6.75,5.42,2.62,5.16,7.85,6,12.86.46,2.89,1.62,6.54,3.75,8.1,3.47,2.54,3.43,5,2.59,8.49a15.63,15.63,0,0,0-.4,6.91,23.65,23.65,0,0,1-2.3,16.41c-1.89,3.71-2.19,6,1.45,8.69,1.46,1.06,2.86,3.68,2.62,5.36-1.31,9.46,3,16.19,8.88,23,3.93,4.6,6.86,10.27,5.45,17.31-1.1,5.48.57,10.57,4.84,14.86,2,2,2.6,5.36,4,8,1.33,2.45,2.91,4.76,4.44,7.09a27.77,27.77,0,0,0,3,4.06c6,6.28,6.7,13.71,5.74,22-.49,4.16,3.1,6.61,6.81,8.1,1,.42,2.69.22,3.17.92,4,5.88,10.16,8.93,15.76,12.78,1.54,1.06,2.61,3.43,3,5.39,1.09,5.1,3.95,8.87,7.73,12.21,4.14,3.66,8.15,7.45,12.17,11.25a4.45,4.45,0,0,1,1.1,2.09c1.08,4.52,1.79,9.15,3.2,13.56,1.49,4.64,4.55,7.71,10,8a7.58,7.58,0,0,1,4.92,2.57c5,6.27,9.27,13.1,14.56,19.06,2.53,2.85,6.57,5.48,10.22,5.95,5.05.65,7.69,2.74,9.25,7.18s3.35,8.82,4.89,13.28c1.74,5.08,4.74,8.25,10.43,9.06,2,.27,4.38,2.4,5.29,4.3,2.14,4.49,5.53,6.62,9.9,8.73,6.21,3,11.69,7.51,17.51,11.32,1.59,1,3.3,1.88,5,2.82l1.61-1.08c-1.51-3.09-2.39-6.79-4.66-9.14-3.84-4-8.61-7-12.88-10.6A113.2,113.2,0,0,1,159,434a36.65,36.65,0,0,1-4.58-6.8c-3.07-5.19-5.66-10.71-9.2-15.55-1.61-2.21-5-3.13-7.13-4.38-4.16-4.17-8.47-7.88-12-12.24-2-2.54-2.67-6.15-4-9.24a87.42,87.42,0,0,0-4.85-10.31c-4.16-6.81-8.95-13.23-12.92-20.14-2.45-4.29-3.68-9.25-5.8-13.75a44.69,44.69,0,0,0-5.5-9.07,8.16,8.16,0,0,0-5.1-2.37c-6.94-.77-8.34-1.68-9.94-8-.92-3.7-2.16-7,0-11.24,1.4-2.73-.15-7.37-1.25-10.87s-3.15-6.22-1.5-10.23c1.26-3.09-4.61-10.14-9-11.7-8.37-2.95-10.46-6.15-10.9-15.36-.11-2.26-1.43-4.53-2.43-6.68-2.08-4.5-4.71-8.77-6.35-13.41-1.31-3.73-3.75-5.62-6.93-4.37-5.85,2.31-7.38-1.72-9.77-5.22a75.07,75.07,0,0,0-5.2-6c-1.44-1.69-3.83-3.36-4-5.2-.53-6.48.58-13.18-.56-19.51-1.34-7.51-1.86-15.6-7.55-21.76-1.2-1.3-2.68-2.83-3-4.44C8,166.92.86,161.59-4.51,155c-1.14-1.41-2.06-4-1.58-5.53,1.09-3.53,0-6-2.06-8.59-1-1.26-1.36-3.07-2-4.63,1.53-.39,3.06-1.11,4.59-1.11,21.66-.07,43.33-.05,65-.05H208.53c7.63,0,7.38,0,8,7.78,1.15,15.08,2.73,30.13,3.9,45.22.87,11.35,1.17,22.75,2.1,34.1,1.08,13.09,2.63,26.15,3.87,39.23.5,5.25.65,10.54,1.09,15.8,1.28,15.07,2.7,30.14,3.9,45.22.56,7.08.54,14.21,1.13,21.3,1.18,14.29,2.66,28.56,3.9,42.85.79,9.19,1.4,18.4,2.05,27.6.7,9.87,1.29,19.75,2,29.61.23,3,1.9,4.12,4.65,2.38,5.37-3.39,10.75-6.78,16-10.36,12.39-8.49,24.68-17.13,37.07-25.62,20.72-14.21,41.42-28.44,62.25-42.49,15.4-10.39,31.07-20.39,46.47-30.8,12.57-8.51,24.79-17.54,37.37-26,16.9-11.4,34-22.46,51-33.76,8-5.32,15.88-10.84,23.82-16.28,12-8.21,23.94-16.46,36-24.63,11.33-7.71,22.73-15.31,34-23.06,1-.69,1.52-2.14,2.27-3.24a19,19,0,0,0-3.68-1.74,17.59,17.59,0,0,0-4-.07q-160.76,0-321.52,0c-2.19,0-4.38-.29-7.36-.5,4.22-7.63,7.88-14.28,11.57-20.92,7.52-13.54,15.24-27,22.49-40.64,3.83-7.23,8-11.21,17.44-11.2q377.51.51,755,.29c2.33,0,4.66.27,7.72.46-4,7.48-7.42,13.92-11,20.28-6.15,11.07-12.24,22.19-18.66,33.11-4.3,7.3-8.07,15.37-14,21.11-7.05,6.82-16.16,11.51-24.37,17.11q-19.2,13.13-38.41,26.22c-9.17,6.24-18.41,12.38-27.58,18.61q-34.43,23.39-68.82,46.79c-19,12.89-38.22,25.55-57.22,38.48-19.7,13.41-39.17,27.16-58.92,40.5-18.37,12.42-37.09,24.32-55.44,36.77-20.92,14.21-41.49,28.94-62.43,43.15C613,490.73,593.34,503.3,574,516.32c-12.59,8.48-24.79,17.53-37.37,26-16.76,11.32-33.72,22.34-50.54,33.56-1.07.71-1.73,2-2.58,3.09a20.62,20.62,0,0,0,3.92,2,15.53,15.53,0,0,0,4,.07q223.76,0,447.52,0c2.15,0,4.3.34,7.51.61-5.91,10.55-11.17,19.92-16.4,29.3-7.91,14.18-15.77,28.39-23.7,42.56-1.43,2.56-3.4,3.63-6.7,3.63q-467.28-.16-934.55-.11h-4.8c-.63-4.38-1.46-8.65-1.83-13q-2.13-24.85-4-49.72c-.47-6.1-.57-12.22-1.07-18.31-1.23-14.74-2.73-29.47-3.87-44.22-.62-8.11-.69-16.25-1.14-24.37-.16-3.1-.15-6.38-1.2-9.21-.67-1.76-3.08-3-4.9-4.15-.71-.46-1.95-.08-2.95-.08q-98,0-196-.07c-5.13,0-8.83,2.12-12,5.7-5.38,6-10.69,12.13-16.14,18.1q-21.56,23.63-43.23,47.15c-7.19,7.78-14.69,15.28-21.9,23q-24.33,26.18-48.49,52.5c-1.1,1.2-2,2.61-3,3.92-6.22,8.31-14.13,11.1-24.81,10.95-45.49-.63-91-.25-136.5-.34-1.92,0-3.84-1-5.76-1.61,1-1.61,1.67-3.49,3-4.79q14.55-14.79,29.31-29.38c14-13.77,28.11-27.38,42.09-41.15,10.79-10.62,21.33-21.5,32.19-32,6.22-6,13-11.53,19.26-17.5,5.66-5.37,11-11.1,16.52-16.62q10.88-10.86,21.84-21.62,37-36.48,74-72.92c15-14.68,30.28-29,45.33-43.65,4.27-4.16,8.06-8.81,12.3-13q28.59-28.25,57.3-56.34c14-13.74,28-27.5,42.14-41.1,9.55-9.18,19.59-17.84,29-27.18,15.61-15.53,30.82-31.46,46.34-47.09,2.47-2.49,5.62-4.31,8.44-6.43,3.65,4.84,3.88,10,1.14,14.72-1.13,2-2.13,4-3.17,6.06-2.4,4.67-1.54,8.27,2.48,12,2,1.84,2,5.7,3.07,8.61a18.88,18.88,0,0,0,2,4.21c3.41,5.05,7.28,9.83,10.18,15.15.87,1.6-.55,4.76-1.49,6.95-1.56,3.63-1.73,6.43,1,9.92,2.39,3,2.93,7.42,4.8,10.94,1.49,2.81,3.7,5.25,5.68,7.79,1.07,1.38,2.46,2.52,3.49,3.93,2.42,3.28,4.58,6.76,7.09,10A9.59,9.59,0,0,1-54,306c-4.67,4.62-4.64,8.59-.3,13.92,1.69,2.06,2.61,4.72,4.17,6.91,1.08,1.52,2.44,3.47,4,3.88,9.53,2.48,11.55,9.68,11.45,18a12.61,12.61,0,0,0,4.54,10.41c5.52,4.89,8.06,11,8.88,18.47a15.17,15.17,0,0,0,6.4,10.06c4.85,2.87,10.79,4.06,16.41,5.4,5.28,1.27,8.65,5.93,7.27,11.25-.81,3.08-.71,5,3.17,6.25,5.41,1.7,6.85,7,8.5,11.84.9,2.64,1.16,5.11,5.84,5.32,4.15.18,6.62,5.4,7.06,10.12.29,3.08,1.72,4.82,4.74,5.29,6.7,1,7.9,2.93,8.38,10.29.54,8.24,4.16,15.2,11.77,18.9,3.26,1.58,7.51,1.05,11.2,1.93a8.55,8.55,0,0,1,4.38,2.94c2.87,3.68,6,6.55,10.78,7.72,2,.48,3.76,2,5.34,3.38,4.29,3.74,9,7.19,12.44,11.63,4.44,5.75,9.19,9.83,16.57,11.59,3.45.81,5.8,5.53,9.13,7.75,4.47,3,9.41,5.24,14.15,7.82Zm-281.1-263-2.35.78c0,1.95-.44,4,.08,5.83,1.92,6.57,1.4,13.45,5.75,19.88s6.89,14.66,3.44,23.11c-.39,1,1,2.72,1.72,4.05,2,3.78,5.22,7.37,5.77,11.35.68,4.9,1.64,8.4,6.83,9.62a4.06,4.06,0,0,1,2,1.25c5.25,6.34,5.56,11.81,1.54,19.72a5.92,5.92,0,0,0-.22,4.45c2.32,5.57,4.73,11.14,7.58,16.45,2.17,4,4.73,7.67,10.64,7,1.74-.21,5.5.8,4.46,5.61-.84,3.91-4,8.41.35,12.7,2,2,2.91,5.06,4.4,7.59,1.15,2,2.57,3.79,3.6,5.8,1.46,2.84,2.77,5.76,4,8.72.77,1.94.7,4.39,1.88,6,2.59,3.47,6.7,6.09,8.45,9.86,3.38,7.26,8.83,11.37,15.54,15.25,4.55,2.64,7.66,7.91,11.14,12.22,1.88,2.33,4,4.95,4.57,7.74,1.12,5.2,3.68,7.31,8.91,6.87,1.54-.14,3.92.29,4.65,1.34,5.14,7.41,14.46,9.26,20.3,15.65A3.58,3.58,0,0,0-1,502c5.4,2.31,8.43,7.07,8,12.21-.31,3.46.76,5.14,2.75,6.49,3.11,2.13,6.67,3.59,10,5.37,3.8,2,8.09,3.5,11.22,6.27a25.89,25.89,0,0,0,18.6,6.94c-2-3.26-4.14-6.46-7.07-8.42-4.22-2.83-8.35-5.4-10.87-10.08a9.66,9.66,0,0,0-4.3-3.63c-4.54-2.18-6.53-5.84-8-10.5-1.84-5.78-4.78-11-11.19-13.35a24.41,24.41,0,0,1-14.3-13.51C-8.3,475.08-9.59,470-12,465.45a25.66,25.66,0,0,0-7.27-8.18c-5.73-4.18-12.65-6.95-14.59-14.88-.61-2.49-1.13-5.49-2.8-7.14-5.69-5.65-5.8-13.25-7.73-20.16s-3.26-8.06-10.37-9.16c-2.42-.38-4.61-2.48-6.78-4-1-.73-1.66-2.21-2.76-2.75-4-1.94-3.83-4.75-2.29-8.22.51-1.18.88-3.42.28-3.92-3.92-3.24-4.51-7.38-4.35-12.06a7,7,0,0,0-1.93-4.35C-78,364.71-83.68,359-89,353a13.16,13.16,0,0,1-3.35-6.28c-.56-3.76-.06-7.67-.26-11.5-.07-1.35-.48-3.11-1.41-3.92-5-4.34-10.3-8.36-15.34-12.67a14.29,14.29,0,0,1-3.09-4.38c-4.23-8.34-7.9-17-12.7-25-2.92-4.87-5.1-9.35-5.75-15.18C-131.39,270-135.06,266.28-137.29,262.4ZM207.57,373.05l.86-.56q-5.55-10.39-11.12-20.78c-.14-.25-.51-.38-.75-.59-4.68-4.15-9.4-8.27-14-12.48-3.72-3.39-7-7-6.18-12.7a5.62,5.62,0,0,0-1.07-3.18c-3.49-6-6.95-11.91-13.58-15.21-1.49-.74-2.41-3-3.17-4.77a45.87,45.87,0,0,1-2.12-6.93c-1.38-5.48-3.25-10.92-3.77-16.48-.34-3.73-1.55-5.83-4.77-7.15-3.62-1.48-7.49-7.75-6.25-11.33,2.28-6.56-1.51-11.68-3.41-17.25-.36-1-2-2.48-2.87-2.41-4.75.41-8.23-2.2-12.29-3.86-5.93-2.44-8.69-7.14-10.38-12.11-2.29-6.78-7.24-13-5.56-20.92a2.71,2.71,0,0,0-1.11-2.12c-8.89-6.24-8.25-19.25-17.8-25-.53-.32-.52-1.48-.83-2.22-2-4.6-3.69-9.33-6.06-13.72-.8-1.49-3.21-2.1-4.89-3.12-.46,2-1,4-1.34,6.07-.08.4.35.89.53,1.35,2.72,6.6,7.88,12.49,5.88,20.48a3.14,3.14,0,0,0,.75,2.22c2.59,3.43,2.16,6.79.37,10.46a6.06,6.06,0,0,0-.14,4.86c2.71,4.77,5.93,9.25,8.83,13.92a22.5,22.5,0,0,1,2.12,4.84c1.75,5.33,3.42,10.7,5.09,16.06,1,3.19,2.75,6.39,2.75,9.58,0,5.55.2,10.57,5.44,13.91.65.42,1.52,1.24,1.51,1.86-.11,8.08,5.09,11.24,11.47,14.78,5.39,3,9.13,8.83,13.91,13.06,2.22,2,2.95,3.61,3.16,6.74.26,3.75,1.88,9.07,4.67,10.68,7.2,4.17,10.41,11.32,15.49,17,1.74,2,3.2,4.24,5.2,5.86,4.66,3.76,9.67,7.1,14.33,10.87a6.21,6.21,0,0,1,1.9,4.2c.17,4.17,2.41,6.6,5.81,8.46a43.38,43.38,0,0,1,5.77,3.68C195.85,363.68,201.69,368.39,207.57,373.05Z" transform="translate(568.48 -134.77)"/><path d="M-70.46,421.62c-1.38-1.88-2.77-3.76-4.15-5.65l.57-1.14c1.52.63,3.56.86,4.43,2s.59,3.17.81,4.81Z" transform="translate(568.48 -134.77)"/><path d="M-29.23,470.6q3.45,3.7,6.89,7.42l-1.42,1.39-7.17-7.2Z" transform="translate(568.48 -134.77)"/></svg>